<svg version="1.1" xmlns="http://www.w3.org/2000/svg" viewBox="0 0 1026.2642368996262 720" width="1026.2642368996262" height="720">
  <!-- svg-source:excalidraw -->
  
  <defs>
    <style class="style-fonts">
      @font-face {
        font-family: "Virgil";
        src: url("https://excalidraw.com/Virgil.woff2");
      }
      @font-face {
        font-family: "Cascadia";
        src: url("https://excalidraw.com/Cascadia.woff2");
      }
      @font-face {
        font-family: "Assistant";
        src: url("https://excalidraw.com/Assistant-Regular.woff2");
      }
    </style>
    
  </defs>
  <g stroke-linecap="round" transform="translate(76.26423689962633 110) rotate(0 100 40)"><path d="M20 0 C63.1 0, 106.21 0, 180 0 M20 0 C52.51 0, 85.02 0, 180 0 M180 0 C193.33 0, 200 6.67, 200 20 M180 0 C193.33 0, 200 6.67, 200 20 M200 20 C200 28.59, 200 37.18, 200 60 M200 20 C200 33.82, 200 47.63, 200 60 M200 60 C200 73.33, 193.33 80, 180 80 M200 60 C200 73.33, 193.33 80, 180 80 M180 80 C128.27 80, 76.54 80, 20 80 M180 80 C116.48 80, 52.95 80, 20 80 M20 80 C6.67 80, 0 73.33, 0 60 M20 80 C6.67 80, 0 73.33, 0 60 M0 60 C0 51.93, 0 43.87, 0 20 M0 60 C0 48.77, 0 37.54, 0 20 M0 20 C0 6.67, 6.67 0, 20 0 M0 20 C0 6.67, 6.67 0, 20 0" stroke="#1e1e1e" stroke-width="2" fill="none"></path></g><g transform="translate(107.89997908712633 138.5) rotate(0 68.3642578125 11.5)"><text x="68.3642578125" y="18.400390625" font-family="Helvetica, Segoe UI Emoji" font-size="20px" fill="#1e1e1e" text-anchor="middle" style="white-space: pre;" direction="ltr" dominant-baseline="alphabetic">Identify corners</text></g><g stroke-linecap="round" transform="translate(76.26423689962633 230) rotate(0 100 40)"><path d="M20 0 C53.56 0, 87.11 0, 180 0 M20 0 C82.09 0, 144.17 0, 180 0 M180 0 C193.33 0, 200 6.67, 200 20 M180 0 C193.33 0, 200 6.67, 200 20 M200 20 C200 35.6, 200 51.19, 200 60 M200 20 C200 29.52, 200 39.04, 200 60 M200 60 C200 73.33, 193.33 80, 180 80 M200 60 C200 73.33, 193.33 80, 180 80 M180 80 C140.88 80, 101.76 80, 20 80 M180 80 C117.35 80, 54.69 80, 20 80 M20 80 C6.67 80, 0 73.33, 0 60 M20 80 C6.67 80, 0 73.33, 0 60 M0 60 C0 48.04, 0 36.07, 0 20 M0 60 C0 46.47, 0 32.94, 0 20 M0 20 C0 6.67, 6.67 0, 20 0 M0 20 C0 6.67, 6.67 0, 20 0" stroke="#1e1e1e" stroke-width="2" fill="none"></path></g><g transform="translate(121.23982283712633 247) rotate(0 55.0244140625 23)"><text x="55.0244140625" y="18.400390625" font-family="Helvetica, Segoe UI Emoji" font-size="20px" fill="#1e1e1e" text-anchor="middle" style="white-space: pre;" direction="ltr" dominant-baseline="alphabetic">Perspective </text><text x="55.0244140625" y="41.400390625" font-family="Helvetica, Segoe UI Emoji" font-size="20px" fill="#1e1e1e" text-anchor="middle" style="white-space: pre;" direction="ltr" dominant-baseline="alphabetic">Transform</text></g><g stroke-linecap="round" transform="translate(56.264236899626326 90) rotate(0 120 120)"><path d="M32 0 C85.22 0, 138.44 0, 208 0 M208 0 C229.33 0, 240 10.67, 240 32 M240 32 C240 83.03, 240 134.05, 240 208 M240 208 C240 229.33, 229.33 240, 208 240 M208 240 C168.39 240, 128.78 240, 32 240 M32 240 C10.67 240, 0 229.33, 0 208 M0 208 C0 160.86, 0 113.72, 0 32 M0 32 C0 10.67, 10.67 0, 32 0" stroke="#1e1e1e" stroke-width="2.5" fill="none" stroke-dasharray="8 10"></path></g><g stroke-linecap="round" transform="translate(56.264236899626326 390) rotate(0 120 120)"><path d="M32 0 C92.58 0, 153.16 0, 208 0 M208 0 C229.33 0, 240 10.67, 240 32 M240 32 C240 88.4, 240 144.79, 240 208 M240 208 C240 229.33, 229.33 240, 208 240 M208 240 C168.74 240, 129.47 240, 32 240 M32 240 C10.67 240, 0 229.33, 0 208 M0 208 C0 163.6, 0 119.2, 0 32 M0 32 C0 10.67, 10.67 0, 32 0" stroke="#1e1e1e" stroke-width="2.5" fill="none" stroke-dasharray="8 10"></path></g><g stroke-linecap="round" transform="translate(76.26423689962633 410) rotate(0 100 40)"><path d="M20 0 C57.56 0, 95.11 0, 180 0 M20 0 C58.55 0, 97.1 0, 180 0 M180 0 C193.33 0, 200 6.67, 200 20 M180 0 C193.33 0, 200 6.67, 200 20 M200 20 C200 34.27, 200 48.53, 200 60 M200 20 C200 32.47, 200 44.94, 200 60 M200 60 C200 73.33, 193.33 80, 180 80 M200 60 C200 73.33, 193.33 80, 180 80 M180 80 C135.35 80, 90.7 80, 20 80 M180 80 C131.08 80, 82.15 80, 20 80 M20 80 C6.67 80, 0 73.33, 0 60 M20 80 C6.67 80, 0 73.33, 0 60 M0 60 C0 46.09, 0 32.17, 0 20 M0 60 C0 46.87, 0 33.74, 0 20 M0 20 C0 6.67, 6.67 0, 20 0 M0 20 C0 6.67, 6.67 0, 20 0" stroke="#1e1e1e" stroke-width="2" fill="none"></path></g><g transform="translate(107.90974471212633 427) rotate(0 68.3544921875 23)"><text x="68.3544921875" y="18.400390625" font-family="Helvetica, Segoe UI Emoji" font-size="20px" fill="#1e1e1e" text-anchor="middle" style="white-space: pre;" direction="ltr" dominant-baseline="alphabetic">Detect missing </text><text x="68.3544921875" y="41.400390625" font-family="Helvetica, Segoe UI Emoji" font-size="20px" fill="#1e1e1e" text-anchor="middle" style="white-space: pre;" direction="ltr" dominant-baseline="alphabetic">region</text></g><g stroke-linecap="round" transform="translate(76.26423689962633 530) rotate(0 100 40)"><path d="M20 0 C77.01 0, 134.02 0, 180 0 M20 0 C54.67 0, 89.34 0, 180 0 M180 0 C193.33 0, 200 6.67, 200 20 M180 0 C193.33 0, 200 6.67, 200 20 M200 20 C200 35.92, 200 51.84, 200 60 M200 20 C200 33.87, 200 47.73, 200 60 M200 60 C200 73.33, 193.33 80, 180 80 M200 60 C200 73.33, 193.33 80, 180 80 M180 80 C125.21 80, 70.42 80, 20 80 M180 80 C121.91 80, 63.81 80, 20 80 M20 80 C6.67 80, 0 73.33, 0 60 M20 80 C6.67 80, 0 73.33, 0 60 M0 60 C0 47.81, 0 35.61, 0 20 M0 60 C0 49.23, 0 38.46, 0 20 M0 20 C0 6.67, 6.67 0, 20 0 M0 20 C0 6.67, 6.67 0, 20 0" stroke="#1e1e1e" stroke-width="2" fill="none"></path></g><g transform="translate(146.23982283712633 558.5) rotate(0 30.0244140625 11.5)"><text x="30.0244140625" y="18.400390625" font-family="Helvetica, Segoe UI Emoji" font-size="20px" fill="#1e1e1e" text-anchor="middle" style="white-space: pre;" direction="ltr" dominant-baseline="alphabetic">Inpaint</text></g><g stroke-linecap="round" transform="translate(416.2642368996263 90) rotate(0 120 270)"><path d="M32 0 C69.62 0, 107.24 0, 208 0 M208 0 C229.33 0, 240 10.67, 240 32 M240 32 C240 164.91, 240 297.82, 240 508 M240 508 C240 529.33, 229.33 540, 208 540 M208 540 C139.95 540, 71.9 540, 32 540 M32 540 C10.67 540, 0 529.33, 0 508 M0 508 C0 329.47, 0 150.95, 0 32 M0 32 C0 10.67, 10.67 0, 32 0" stroke="#1e1e1e" stroke-width="2.5" fill="none" stroke-dasharray="8 10"></path></g><g stroke-linecap="round" transform="translate(436.2642368996263 110) rotate(0 100 40)"><path d="M20 0 C65.56 0, 111.11 0, 180 0 M20 0 C76.51 0, 133.01 0, 180 0 M180 0 C193.33 0, 200 6.67, 200 20 M180 0 C193.33 0, 200 6.67, 200 20 M200 20 C200 28.74, 200 37.48, 200 60 M200 20 C200 30.56, 200 41.12, 200 60 M200 60 C200 73.33, 193.33 80, 180 80 M200 60 C200 73.33, 193.33 80, 180 80 M180 80 C137.63 80, 95.26 80, 20 80 M180 80 C142.56 80, 105.13 80, 20 80 M20 80 C6.67 80, 0 73.33, 0 60 M20 80 C6.67 80, 0 73.33, 0 60 M0 60 C0 49.49, 0 38.97, 0 20 M0 60 C0 45.07, 0 30.14, 0 20 M0 20 C0 6.67, 6.67 0, 20 0 M0 20 C0 6.67, 6.67 0, 20 0" stroke="#1e1e1e" stroke-width="2" fill="none"></path></g><g transform="translate(455.1070103371263 127) rotate(0 81.1572265625 23)"><text x="81.1572265625" y="18.400390625" font-family="Helvetica, Segoe UI Emoji" font-size="20px" fill="#1e1e1e" text-anchor="middle" style="white-space: pre;" direction="ltr" dominant-baseline="alphabetic">High Thresholding</text><text x="81.1572265625" y="41.400390625" font-family="Helvetica, Segoe UI Emoji" font-size="20px" fill="#1e1e1e" text-anchor="middle" style="white-space: pre;" direction="ltr" dominant-baseline="alphabetic">(Median)</text></g><g stroke-linecap="round" transform="translate(436.2642368996263 250) rotate(0 100 40)"><path d="M20 0 C62.28 0, 104.55 0, 180 0 M20 0 C70.49 0, 120.99 0, 180 0 M180 0 C193.33 0, 200 6.67, 200 20 M180 0 C193.33 0, 200 6.67, 200 20 M200 20 C200 32.86, 200 45.72, 200 60 M200 20 C200 31.94, 200 43.88, 200 60 M200 60 C200 73.33, 193.33 80, 180 80 M200 60 C200 73.33, 193.33 80, 180 80 M180 80 C147.91 80, 115.83 80, 20 80 M180 80 C139.52 80, 99.05 80, 20 80 M20 80 C6.67 80, 0 73.33, 0 60 M20 80 C6.67 80, 0 73.33, 0 60 M0 60 C0 46.94, 0 33.88, 0 20 M0 60 C0 45.49, 0 30.98, 0 20 M0 20 C0 6.67, 6.67 0, 20 0 M0 20 C0 6.67, 6.67 0, 20 0" stroke="#1e1e1e" stroke-width="2" fill="none"></path></g><g transform="translate(457.3286900246263 267) rotate(0 78.935546875 23)"><text x="78.935546875" y="18.400390625" font-family="Helvetica, Segoe UI Emoji" font-size="20px" fill="#1e1e1e" text-anchor="middle" style="white-space: pre;" direction="ltr" dominant-baseline="alphabetic">Low Thresholding</text><text x="78.935546875" y="41.400390625" font-family="Helvetica, Segoe UI Emoji" font-size="20px" fill="#1e1e1e" text-anchor="middle" style="white-space: pre;" direction="ltr" dominant-baseline="alphabetic">(Gaussian)</text></g><g stroke-linecap="round" transform="translate(436.2642368996263 390) rotate(0 100 40)"><path d="M20 0 C64.44 0, 108.89 0, 180 0 M20 0 C72.57 0, 125.14 0, 180 0 M180 0 C193.33 0, 200 6.67, 200 20 M180 0 C193.33 0, 200 6.67, 200 20 M200 20 C200 29.25, 200 38.49, 200 60 M200 20 C200 35, 200 50.01, 200 60 M200 60 C200 73.33, 193.33 80, 180 80 M200 60 C200 73.33, 193.33 80, 180 80 M180 80 C117.66 80, 55.33 80, 20 80 M180 80 C146.56 80, 113.11 80, 20 80 M20 80 C6.67 80, 0 73.33, 0 60 M20 80 C6.67 80, 0 73.33, 0 60 M0 60 C0 46.59, 0 33.19, 0 20 M0 60 C0 44.07, 0 28.15, 0 20 M0 20 C0 6.67, 6.67 0, 20 0 M0 20 C0 6.67, 6.67 0, 20 0" stroke="#1e1e1e" stroke-width="2" fill="none"></path></g><g transform="translate(458.4517368996263 407) rotate(0 77.8125 23)"><text x="77.8125" y="18.400390625" font-family="Helvetica, Segoe UI Emoji" font-size="20px" fill="#1e1e1e" text-anchor="middle" style="white-space: pre;" direction="ltr" dominant-baseline="alphabetic">Non-local means </text><text x="77.8125" y="41.400390625" font-family="Helvetica, Segoe UI Emoji" font-size="20px" fill="#1e1e1e" text-anchor="middle" style="white-space: pre;" direction="ltr" dominant-baseline="alphabetic">denoising</text></g><g stroke-linecap="round" transform="translate(436.2642368996263 530) rotate(0 100 40)"><path d="M20 0 C80.68 0, 141.37 0, 180 0 M20 0 C80.34 0, 140.67 0, 180 0 M180 0 C193.33 0, 200 6.67, 200 20 M180 0 C193.33 0, 200 6.67, 200 20 M200 20 C200 31.5, 200 43, 200 60 M200 20 C200 35.48, 200 50.97, 200 60 M200 60 C200 73.33, 193.33 80, 180 80 M200 60 C200 73.33, 193.33 80, 180 80 M180 80 C136.47 80, 92.95 80, 20 80 M180 80 C120.2 80, 60.4 80, 20 80 M20 80 C6.67 80, 0 73.33, 0 60 M20 80 C6.67 80, 0 73.33, 0 60 M0 60 C0 45.62, 0 31.25, 0 20 M0 60 C0 49.61, 0 39.21, 0 20 M0 20 C0 6.67, 6.67 0, 20 0 M0 20 C0 6.67, 6.67 0, 20 0" stroke="#1e1e1e" stroke-width="2" fill="none"></path></g><g transform="translate(445.6685337746263 558.5) rotate(0 90.595703125 11.5)"><text x="90.595703125" y="18.400390625" font-family="Helvetica, Segoe UI Emoji" font-size="20px" fill="#1e1e1e" text-anchor="middle" style="white-space: pre;" direction="ltr" dominant-baseline="alphabetic">YCrCb Thresholding</text></g><g stroke-linecap="round"><g transform="translate(176.26423689962633 190) rotate(0 0 20)"><path d="M0 0 C0 6.67, 0 33.33, 0 40 M0 0 C0 6.67, 0 33.33, 0 40" stroke="#1e1e1e" stroke-width="2" fill="none"></path></g><g transform="translate(176.26423689962633 190) rotate(0 0 20)"><path d="M0 40 L-6.34 26.41 L6.34 26.41 L0 40" stroke="none" stroke-width="0" fill="#1e1e1e" fill-rule="evenodd"></path><path d="M0 40 C-2.21 35.26, -4.42 30.51, -6.34 26.41 M0 40 C-1.51 36.76, -3.02 33.51, -6.34 26.41 M-6.34 26.41 C-1.69 26.41, 2.97 26.41, 6.34 26.41 M-6.34 26.41 C-1.44 26.41, 3.46 26.41, 6.34 26.41 M6.34 26.41 C4.25 30.89, 2.16 35.38, 0 40 M6.34 26.41 C3.91 31.62, 1.48 36.84, 0 40 M0 40 C0 40, 0 40, 0 40 M0 40 C0 40, 0 40, 0 40" stroke="#1e1e1e" stroke-width="2" fill="none"></path></g></g><mask></mask><g stroke-linecap="round"><g transform="translate(176.26423689962633 10) rotate(0 0 40)"><path d="M0 0 C0 13.33, 0 66.67, 0 80 M0 0 C0 13.33, 0 66.67, 0 80" stroke="#1e1e1e" stroke-width="2" fill="none"></path></g><g transform="translate(176.26423689962633 10) rotate(0 0 40)"><path d="M0 80 L-6.34 66.41 L6.34 66.41 L0 80" stroke="none" stroke-width="0" fill="#1e1e1e" fill-rule="evenodd"></path><path d="M0 80 C-1.96 75.8, -3.92 71.6, -6.34 66.41 M0 80 C-2.31 75.05, -4.61 70.11, -6.34 66.41 M-6.34 66.41 C-2.51 66.41, 1.32 66.41, 6.34 66.41 M-6.34 66.41 C-2.86 66.41, 0.63 66.41, 6.34 66.41 M6.34 66.41 C4.19 71.01, 2.05 75.61, 0 80 M6.34 66.41 C4.42 70.52, 2.51 74.63, 0 80 M0 80 C0 80, 0 80, 0 80 M0 80 C0 80, 0 80, 0 80" stroke="#1e1e1e" stroke-width="2" fill="none"></path></g></g><mask></mask><g stroke-linecap="round"><g transform="translate(176.26423689962633 330) rotate(0 0 30)"><path d="M0 0 C0 10, 0 50, 0 60 M0 0 C0 10, 0 50, 0 60" stroke="#1e1e1e" stroke-width="2" fill="none"></path></g><g transform="translate(176.26423689962633 330) rotate(0 0 30)"><path d="M0 60 L-6.34 46.41 L6.34 46.41 L0 60" stroke="none" stroke-width="0" fill="#1e1e1e" fill-rule="evenodd"></path><path d="M0 60 C-2.43 54.78, -4.86 49.57, -6.34 46.41 M0 60 C-1.55 56.68, -3.1 53.36, -6.34 46.41 M-6.34 46.41 C-3.08 46.41, 0.18 46.41, 6.34 46.41 M-6.34 46.41 C-1.93 46.41, 2.48 46.41, 6.34 46.41 M6.34 46.41 C4.97 49.35, 3.6 52.29, 0 60 M6.34 46.41 C4.7 49.92, 3.07 53.43, 0 60 M0 60 C0 60, 0 60, 0 60 M0 60 C0 60, 0 60, 0 60" stroke="#1e1e1e" stroke-width="2" fill="none"></path></g></g><mask></mask><g stroke-linecap="round"><g transform="translate(176.26423689962633 630) rotate(0 0 30)"><path d="M0 0 C0 10, 0 50, 0 60 M0 0 C0 10, 0 50, 0 60" stroke="#1e1e1e" stroke-width="2" fill="none"></path></g></g><mask></mask><g stroke-linecap="round"><g transform="translate(176.26423689962633 690) rotate(0 80 0)"><path d="M0 0 C26.67 0, 133.33 0, 160 0 M0 0 C26.67 0, 133.33 0, 160 0" stroke="#1e1e1e" stroke-width="2" fill="none"></path></g></g><mask></mask><g stroke-linecap="round"><g transform="translate(336.2642368996263 690) rotate(0 0 -330)"><path d="M0 0 C0 -110, 0 -550, 0 -660 M0 0 C0 -110, 0 -550, 0 -660" stroke="#1e1e1e" stroke-width="2" fill="none"></path></g></g><mask></mask><g stroke-linecap="round"><g transform="translate(336.2642368996263 30) rotate(0 100 0)"><path d="M0 0 C33.33 0, 166.67 0, 200 0 M0 0 C33.33 0, 166.67 0, 200 0" stroke="#1e1e1e" stroke-width="2" fill="none"></path></g></g><mask></mask><g stroke-linecap="round"><g transform="translate(536.2642368996263 30) rotate(0 0 30)"><path d="M0 0 C0 10, 0 50, 0 60 M0 0 C0 10, 0 50, 0 60" stroke="#1e1e1e" stroke-width="2" fill="none"></path></g><g transform="translate(536.2642368996263 30) rotate(0 0 30)"><path d="M0 60 L-6.34 46.41 L6.34 46.41 L0 60" stroke="none" stroke-width="0" fill="#1e1e1e" fill-rule="evenodd"></path><path d="M0 60 C-2.3 55.07, -4.59 50.15, -6.34 46.41 M0 60 C-1.97 55.77, -3.94 51.55, -6.34 46.41 M-6.34 46.41 C-3.41 46.41, -0.48 46.41, 6.34 46.41 M-6.34 46.41 C-3.29 46.41, -0.24 46.41, 6.34 46.41 M6.34 46.41 C4.27 50.84, 2.2 55.28, 0 60 M6.34 46.41 C4.95 49.38, 3.57 52.35, 0 60 M0 60 C0 60, 0 60, 0 60 M0 60 C0 60, 0 60, 0 60" stroke="#1e1e1e" stroke-width="2" fill="none"></path></g></g><mask></mask><g stroke-linecap="round" transform="translate(796.2642368996263 110) rotate(0 100 40)"><path d="M20 0 C70.89 0, 121.77 0, 180 0 M20 0 C64.75 0, 109.5 0, 180 0 M180 0 C193.33 0, 200 6.67, 200 20 M180 0 C193.33 0, 200 6.67, 200 20 M200 20 C200 31.93, 200 43.86, 200 60 M200 20 C200 31.51, 200 43.02, 200 60 M200 60 C200 73.33, 193.33 80, 180 80 M200 60 C200 73.33, 193.33 80, 180 80 M180 80 C119.02 80, 58.04 80, 20 80 M180 80 C146.06 80, 112.13 80, 20 80 M20 80 C6.67 80, 0 73.33, 0 60 M20 80 C6.67 80, 0 73.33, 0 60 M0 60 C0 51.58, 0 43.17, 0 20 M0 60 C0 50.22, 0 40.44, 0 20 M0 20 C0 6.67, 6.67 0, 20 0 M0 20 C0 6.67, 6.67 0, 20 0" stroke="#1e1e1e" stroke-width="2" fill="none"></path></g><g transform="translate(826.7769322121263 127) rotate(0 69.4873046875 23)"><text x="69.4873046875" y="18.400390625" font-family="Helvetica, Segoe UI Emoji" font-size="20px" fill="#1e1e1e" text-anchor="middle" style="white-space: pre;" direction="ltr" dominant-baseline="alphabetic">Absolute Scale </text><text x="69.4873046875" y="41.400390625" font-family="Helvetica, Segoe UI Emoji" font-size="20px" fill="#1e1e1e" text-anchor="middle" style="white-space: pre;" direction="ltr" dominant-baseline="alphabetic">Correction</text></g><g stroke-linecap="round" transform="translate(796.2642368996263 230) rotate(0 100 40)"><path d="M20 0 C68.64 0, 117.27 0, 180 0 M20 0 C81.84 0, 143.68 0, 180 0 M180 0 C193.33 0, 200 6.67, 200 20 M180 0 C193.33 0, 200 6.67, 200 20 M200 20 C200 35.56, 200 51.11, 200 60 M200 20 C200 34.61, 200 49.22, 200 60 M200 60 C200 73.33, 193.33 80, 180 80 M200 60 C200 73.33, 193.33 80, 180 80 M180 80 C136.42 80, 92.84 80, 20 80 M180 80 C131.46 80, 82.92 80, 20 80 M20 80 C6.67 80, 0 73.33, 0 60 M20 80 C6.67 80, 0 73.33, 0 60 M0 60 C0 44.76, 0 29.51, 0 20 M0 60 C0 49.18, 0 38.37, 0 20 M0 20 C0 6.67, 6.67 0, 20 0 M0 20 C0 6.67, 6.67 0, 20 0" stroke="#1e1e1e" stroke-width="2" fill="none"></path></g><g transform="translate(814.0181431496263 258.5) rotate(0 82.24609375 11.5)"><text x="82.24609375" y="18.400390625" font-family="Helvetica, Segoe UI Emoji" font-size="20px" fill="#1e1e1e" text-anchor="middle" style="white-space: pre;" direction="ltr" dominant-baseline="alphabetic">Gamma correction</text></g><g stroke-linecap="round" transform="translate(796.2642368996263 410) rotate(0 100 40)"><path d="M20 0 C57.91 0, 95.82 0, 180 0 M20 0 C52.59 0, 85.18 0, 180 0 M180 0 C193.33 0, 200 6.67, 200 20 M180 0 C193.33 0, 200 6.67, 200 20 M200 20 C200 31.13, 200 42.27, 200 60 M200 20 C200 35.73, 200 51.46, 200 60 M200 60 C200 73.33, 193.33 80, 180 80 M200 60 C200 73.33, 193.33 80, 180 80 M180 80 C116.88 80, 53.75 80, 20 80 M180 80 C138.52 80, 97.04 80, 20 80 M20 80 C6.67 80, 0 73.33, 0 60 M20 80 C6.67 80, 0 73.33, 0 60 M0 60 C0 50.89, 0 41.78, 0 20 M0 60 C0 49.64, 0 39.28, 0 20 M0 20 C0 6.67, 6.67 0, 20 0 M0 20 C0 6.67, 6.67 0, 20 0" stroke="#1e1e1e" stroke-width="2" fill="none"></path></g><g transform="translate(849.5650181496263 438.5) rotate(0 46.69921875 11.5)"><text x="46.69921875" y="18.400390625" font-family="Helvetica, Segoe UI Emoji" font-size="20px" fill="#1e1e1e" text-anchor="middle" style="white-space: pre;" direction="ltr" dominant-baseline="alphabetic">Evaluation</text></g><g stroke-linecap="round" transform="translate(796.2642368996263 530) rotate(0 100 40)"><path d="M20 0 C77.57 0, 135.15 0, 180 0 M20 0 C83.45 0, 146.91 0, 180 0 M180 0 C193.33 0, 200 6.67, 200 20 M180 0 C193.33 0, 200 6.67, 200 20 M200 20 C200 35.53, 200 51.06, 200 60 M200 20 C200 29.58, 200 39.16, 200 60 M200 60 C200 73.33, 193.33 80, 180 80 M200 60 C200 73.33, 193.33 80, 180 80 M180 80 C136.09 80, 92.17 80, 20 80 M180 80 C122.21 80, 64.43 80, 20 80 M20 80 C6.67 80, 0 73.33, 0 60 M20 80 C6.67 80, 0 73.33, 0 60 M0 60 C0 51.64, 0 43.27, 0 20 M0 60 C0 48.19, 0 36.37, 0 20 M0 20 C0 6.67, 6.67 0, 20 0 M0 20 C0 6.67, 6.67 0, 20 0" stroke="#1e1e1e" stroke-width="2" fill="none"></path></g><g transform="translate(862.9097447121263 558.5) rotate(0 33.3544921875 11.5)"><text x="33.3544921875" y="18.400390625" font-family="Helvetica, Segoe UI Emoji" font-size="20px" fill="#1e1e1e" text-anchor="middle" style="white-space: pre;" direction="ltr" dominant-baseline="alphabetic">Plotting</text></g><g stroke-linecap="round" transform="translate(776.2642368996263 390) rotate(0 120 120)"><path d="M32 0 C80.69 0, 129.38 0, 208 0 M208 0 C229.33 0, 240 10.67, 240 32 M240 32 C240 77.36, 240 122.72, 240 208 M240 208 C240 229.33, 229.33 240, 208 240 M208 240 C149.64 240, 91.29 240, 32 240 M32 240 C10.67 240, 0 229.33, 0 208 M0 208 C0 149.02, 0 90.05, 0 32 M0 32 C0 10.67, 10.67 0, 32 0" stroke="#1e1e1e" stroke-width="2.5" fill="none" stroke-dasharray="8 10"></path></g><g stroke-linecap="round" transform="translate(776.2642368996263 90) rotate(0 120 120)"><path d="M32 0 C99.63 0, 167.26 0, 208 0 M208 0 C229.33 0, 240 10.67, 240 32 M240 32 C240 89.79, 240 147.57, 240 208 M240 208 C240 229.33, 229.33 240, 208 240 M208 240 C160.78 240, 113.55 240, 32 240 M32 240 C10.67 240, 0 229.33, 0 208 M0 208 C0 167.02, 0 126.04, 0 32 M0 32 C0 10.67, 10.67 0, 32 0" stroke="#1e1e1e" stroke-width="2.5" fill="none" stroke-dasharray="8 10"></path></g><g stroke-linecap="round"><g transform="translate(896.2642368996263 30) rotate(0 0 30)"><path d="M0 0 C0 10, 0 50, 0 60 M0 0 C0 10, 0 50, 0 60" stroke="#1e1e1e" stroke-width="2" fill="none"></path></g><g transform="translate(896.2642368996263 30) rotate(0 0 30)"><path d="M0 60 L-6.34 46.41 L6.34 46.41 L0 60" stroke="none" stroke-width="0" fill="#1e1e1e" fill-rule="evenodd"></path><path d="M0 60 C-2.34 54.98, -4.68 49.96, -6.34 46.41 M0 60 C-1.85 56.03, -3.71 52.05, -6.34 46.41 M-6.34 46.41 C-2.97 46.41, 0.4 46.41, 6.34 46.41 M-6.34 46.41 C-2.85 46.41, 0.64 46.41, 6.34 46.41 M6.34 46.41 C4.83 49.64, 3.32 52.88, 0 60 M6.34 46.41 C4.13 51.13, 1.93 55.86, 0 60 M0 60 C0 60, 0 60, 0 60 M0 60 C0 60, 0 60, 0 60" stroke="#1e1e1e" stroke-width="2" fill="none"></path></g></g><mask></mask><g stroke-linecap="round"><g transform="translate(536.2642368996263 190) rotate(0 0 30)"><path d="M0 0 C0 10, 0 50, 0 60 M0 0 C0 10, 0 50, 0 60" stroke="#1e1e1e" stroke-width="2" fill="none"></path></g><g transform="translate(536.2642368996263 190) rotate(0 0 30)"><path d="M0 60 L-6.34 46.41 L6.34 46.41 L0 60" stroke="none" stroke-width="0" fill="#1e1e1e" fill-rule="evenodd"></path><path d="M0 60 C-1.32 57.17, -2.64 54.35, -6.34 46.41 M0 60 C-1.72 56.3, -3.45 52.61, -6.34 46.41 M-6.34 46.41 C-2.33 46.41, 1.67 46.41, 6.34 46.41 M-6.34 46.41 C-2.82 46.41, 0.7 46.41, 6.34 46.41 M6.34 46.41 C4.74 49.83, 3.15 53.26, 0 60 M6.34 46.41 C4.83 49.64, 3.33 52.87, 0 60 M0 60 C0 60, 0 60, 0 60 M0 60 C0 60, 0 60, 0 60" stroke="#1e1e1e" stroke-width="2" fill="none"></path></g></g><mask></mask><g stroke-linecap="round"><g transform="translate(536.2642368996263 330) rotate(0 0 30)"><path d="M0 0 C0 10, 0 50, 0 60 M0 0 C0 10, 0 50, 0 60" stroke="#1e1e1e" stroke-width="2" fill="none"></path></g><g transform="translate(536.2642368996263 330) rotate(0 0 30)"><path d="M0 60 L-6.34 46.41 L6.34 46.41 L0 60" stroke="none" stroke-width="0" fill="#1e1e1e" fill-rule="evenodd"></path><path d="M0 60 C-1.58 56.6, -3.17 53.21, -6.34 46.41 M0 60 C-2.37 54.91, -4.75 49.82, -6.34 46.41 M-6.34 46.41 C-2.95 46.41, 0.45 46.41, 6.34 46.41 M-6.34 46.41 C-3.42 46.41, -0.49 46.41, 6.34 46.41 M6.34 46.41 C4.09 51.24, 1.83 56.07, 0 60 M6.34 46.41 C4.13 51.14, 1.93 55.87, 0 60 M0 60 C0 60, 0 60, 0 60 M0 60 C0 60, 0 60, 0 60" stroke="#1e1e1e" stroke-width="2" fill="none"></path></g></g><mask></mask><g stroke-linecap="round"><g transform="translate(536.2642368996263 470) rotate(0 0 30)"><path d="M0 0 C0 10, 0 50, 0 60 M0 0 C0 10, 0 50, 0 60" stroke="#1e1e1e" stroke-width="2" fill="none"></path></g><g transform="translate(536.2642368996263 470) rotate(0 0 30)"><path d="M0 60 L-6.34 46.41 L6.34 46.41 L0 60" stroke="none" stroke-width="0" fill="#1e1e1e" fill-rule="evenodd"></path><path d="M0 60 C-1.46 56.88, -2.91 53.76, -6.34 46.41 M0 60 C-1.92 55.89, -3.83 51.78, -6.34 46.41 M-6.34 46.41 C-2.37 46.41, 1.6 46.41, 6.34 46.41 M-6.34 46.41 C-1.84 46.41, 2.66 46.41, 6.34 46.41 M6.34 46.41 C4.65 50.02, 2.96 53.64, 0 60 M6.34 46.41 C3.92 51.6, 1.5 56.79, 0 60 M0 60 C0 60, 0 60, 0 60 M0 60 C0 60, 0 60, 0 60" stroke="#1e1e1e" stroke-width="2" fill="none"></path></g></g><mask></mask><g stroke-linecap="round"><g transform="translate(896.2642368996263 190) rotate(0 0 20)"><path d="M0 0 C0 6.67, 0 33.33, 0 40 M0 0 C0 6.67, 0 33.33, 0 40" stroke="#1e1e1e" stroke-width="2" fill="none"></path></g><g transform="translate(896.2642368996263 190) rotate(0 0 20)"><path d="M0 40 L-6.34 26.41 L6.34 26.41 L0 40" stroke="none" stroke-width="0" fill="#1e1e1e" fill-rule="evenodd"></path><path d="M0 40 C-1.74 36.28, -3.47 32.56, -6.34 26.41 M0 40 C-2.25 35.18, -4.49 30.37, -6.34 26.41 M-6.34 26.41 C-1.79 26.41, 2.76 26.41, 6.34 26.41 M-6.34 26.41 C-1.73 26.41, 2.88 26.41, 6.34 26.41 M6.34 26.41 C4.41 30.55, 2.48 34.69, 0 40 M6.34 26.41 C4.95 29.39, 3.56 32.37, 0 40 M0 40 C0 40, 0 40, 0 40 M0 40 C0 40, 0 40, 0 40" stroke="#1e1e1e" stroke-width="2" fill="none"></path></g></g><mask></mask><g stroke-linecap="round"><g transform="translate(896.2642368996263 330) rotate(0 0 30)"><path d="M0 0 C0 10, 0 50, 0 60 M0 0 C0 10, 0 50, 0 60" stroke="#1e1e1e" stroke-width="2" fill="none"></path></g><g transform="translate(896.2642368996263 330) rotate(0 0 30)"><path d="M0 60 L-6.34 46.41 L6.34 46.41 L0 60" stroke="none" stroke-width="0" fill="#1e1e1e" fill-rule="evenodd"></path><path d="M0 60 C-1.32 57.17, -2.64 54.33, -6.34 46.41 M0 60 C-2.51 54.63, -5.01 49.26, -6.34 46.41 M-6.34 46.41 C-1.56 46.41, 3.22 46.41, 6.34 46.41 M-6.34 46.41 C-3.73 46.41, -1.11 46.41, 6.34 46.41 M6.34 46.41 C4.19 51.02, 2.04 55.63, 0 60 M6.34 46.41 C4.27 50.85, 2.19 55.3, 0 60 M0 60 C0 60, 0 60, 0 60 M0 60 C0 60, 0 60, 0 60" stroke="#1e1e1e" stroke-width="2" fill="none"></path></g></g><mask></mask><g stroke-linecap="round"><g transform="translate(896.2642368996263 490) rotate(0 0 20)"><path d="M0 0 C0 6.67, 0 33.33, 0 40 M0 0 C0 6.67, 0 33.33, 0 40" stroke="#1e1e1e" stroke-width="2" fill="none"></path></g><g transform="translate(896.2642368996263 490) rotate(0 0 20)"><path d="M0 40 L-6.34 26.41 L6.34 26.41 L0 40" stroke="none" stroke-width="0" fill="#1e1e1e" fill-rule="evenodd"></path><path d="M0 40 C-1.31 37.2, -2.61 34.4, -6.34 26.41 M0 40 C-2.15 35.39, -4.3 30.77, -6.34 26.41 M-6.34 26.41 C-2.19 26.41, 1.95 26.41, 6.34 26.41 M-6.34 26.41 C-2.45 26.41, 1.43 26.41, 6.34 26.41 M6.34 26.41 C3.92 31.6, 1.5 36.79, 0 40 M6.34 26.41 C4.86 29.57, 3.39 32.74, 0 40 M0 40 C0 40, 0 40, 0 40 M0 40 C0 40, 0 40, 0 40" stroke="#1e1e1e" stroke-width="2" fill="none"></path></g></g><mask></mask><g stroke-linecap="round"><g transform="translate(896.2642368996263 30) rotate(0 -100 0)"><path d="M0 0 C-33.33 0, -166.67 0, -200 0 M0 0 C-33.33 0, -166.67 0, -200 0" stroke="#1e1e1e" stroke-width="2" fill="none"></path></g></g><mask></mask><g stroke-linecap="round"><g transform="translate(696.2642368996263 30) rotate(0 0 330)"><path d="M0 0 C0 110, 0 550, 0 660 M0 0 C0 110, 0 550, 0 660" stroke="#1e1e1e" stroke-width="2" fill="none"></path></g></g><mask></mask><g stroke-linecap="round"><g transform="translate(536.2642368996263 630) rotate(0 0 30)"><path d="M0 0 C0 10, 0 50, 0 60 M0 0 C0 10, 0 50, 0 60" stroke="#1e1e1e" stroke-width="2" fill="none"></path></g></g><mask></mask><g stroke-linecap="round"><g transform="translate(536.2642368996263 690) rotate(0 80 0)"><path d="M0 0 C26.67 0, 133.33 0, 160 0 M0 0 C26.67 0, 133.33 0, 160 0" stroke="#1e1e1e" stroke-width="2" fill="none"></path></g></g><mask></mask><g stroke-linecap="round"><g transform="translate(896.2642368996263 630) rotate(0 0 40)"><path d="M0 0 C0 13.33, 0 66.67, 0 80 M0 0 C0 13.33, 0 66.67, 0 80" stroke="#1e1e1e" stroke-width="2" fill="none"></path></g><g transform="translate(896.2642368996263 630) rotate(0 0 40)"><path d="M0 80 L-6.34 66.41 L6.34 66.41 L0 80" stroke="none" stroke-width="0" fill="#1e1e1e" fill-rule="evenodd"></path><path d="M0 80 C-1.7 76.36, -3.4 72.72, -6.34 66.41 M0 80 C-1.99 75.74, -3.97 71.48, -6.34 66.41 M-6.34 66.41 C-1.4 66.41, 3.54 66.41, 6.34 66.41 M-6.34 66.41 C-1.74 66.41, 2.85 66.41, 6.34 66.41 M6.34 66.41 C4.46 70.43, 2.59 74.45, 0 80 M6.34 66.41 C4.86 69.58, 3.38 72.76, 0 80 M0 80 C0 80, 0 80, 0 80 M0 80 C0 80, 0 80, 0 80" stroke="#1e1e1e" stroke-width="2" fill="none"></path></g></g><mask></mask><g transform="translate(-45.06359198654229 194.0566845050102) rotate(270.3382624155624 71.5859375 16.099999999999994)"><text x="0" y="25.760546874999996" font-family="Helvetica, Segoe UI Emoji" font-size="28px" fill="#1e1e1e" text-anchor="start" style="white-space: pre;" direction="ltr" dominant-baseline="alphabetic">De-warping</text></g><g transform="translate(-34.12597358540313 494.0832332554379) rotate(270.2413487288261 60.716796875 16.100000000000023)"><text x="0" y="25.760546874999996" font-family="Helvetica, Segoe UI Emoji" font-size="28px" fill="#1e1e1e" text-anchor="start" style="white-space: pre;" direction="ltr" dominant-baseline="alphabetic">Inpainting</text></g><g transform="translate(324.27557431091645 344.48983720634806) rotate(270.39526744223474 62.26171875 16.100000000000023)"><text x="0" y="25.760546874999996" font-family="Helvetica, Segoe UI Emoji" font-size="28px" fill="#1e1e1e" text-anchor="start" style="white-space: pre;" direction="ltr" dominant-baseline="alphabetic">Denoising</text></g><g transform="translate(693.4676470541691 194.13409814531536) rotate(270.5522108559528 52.91015625 16.099999999999994)"><text x="0" y="25.760546874999996" font-family="Helvetica, Segoe UI Emoji" font-size="28px" fill="#1e1e1e" text-anchor="start" style="white-space: pre;" direction="ltr" dominant-baseline="alphabetic">Contrast</text></g><g transform="translate(692.0147883938865 494.022133088701) rotate(270.27765728839626 54.46875 16.100000000000023)"><text x="0" y="25.760546874999996" font-family="Helvetica, Segoe UI Emoji" font-size="28px" fill="#1e1e1e" text-anchor="start" style="white-space: pre;" direction="ltr" dominant-baseline="alphabetic">Measure</text></g></svg>