<svg version="1.1" xmlns="http://www.w3.org/2000/svg" viewBox="0 0 1160 240" width="1160" height="240">
  <!-- svg-source:excalidraw -->
  
  <defs>
    <style class="style-fonts">
      @font-face {
        font-family: "Virgil";
        src: url("https://excalidraw.com/Virgil.woff2");
      }
      @font-face {
        font-family: "Cascadia";
        src: url("https://excalidraw.com/Cascadia.woff2");
      }
      @font-face {
        font-family: "Assistant";
        src: url("https://excalidraw.com/Assistant-Regular.woff2");
      }
    </style>
    
  </defs>
  <g stroke-linecap="round" transform="translate(10 10) rotate(0 80 40)"><path d="M20 0 C66.85 0, 113.71 0, 140 0 M20 0 C67.58 0, 115.16 0, 140 0 M140 0 C153.33 0, 160 6.67, 160 20 M140 0 C153.33 0, 160 6.67, 160 20 M160 20 C160 30.12, 160 40.25, 160 60 M160 20 C160 32.82, 160 45.63, 160 60 M160 60 C160 73.33, 153.33 80, 140 80 M160 60 C160 73.33, 153.33 80, 140 80 M140 80 C97.99 80, 55.97 80, 20 80 M140 80 C110.44 80, 80.87 80, 20 80 M20 80 C6.67 80, 0 73.33, 0 60 M20 80 C6.67 80, 0 73.33, 0 60 M0 60 C0 48.62, 0 37.24, 0 20 M0 60 C0 45.27, 0 30.54, 0 20 M0 20 C0 6.67, 6.67 0, 20 0 M0 20 C0 6.67, 6.67 0, 20 0" stroke="#1e1e1e" stroke-width="2" fill="none"></path></g><g transform="translate(41.0888671875 27) rotate(0 48.9111328125 23)"><text x="48.9111328125" y="18.400390625" font-family="Helvetica, Segoe UI Emoji" font-size="20px" fill="#1e1e1e" text-anchor="middle" style="white-space: pre;" direction="ltr" dominant-baseline="alphabetic">Convert to </text><text x="48.9111328125" y="41.400390625" font-family="Helvetica, Segoe UI Emoji" font-size="20px" fill="#1e1e1e" text-anchor="middle" style="white-space: pre;" direction="ltr" dominant-baseline="alphabetic">grayscale</text></g><g stroke-linecap="round" transform="translate(10 150) rotate(0 80 40)"><path d="M20 0 C66.33 0, 112.66 0, 140 0 M20 0 C66.18 0, 112.36 0, 140 0 M140 0 C153.33 0, 160 6.67, 160 20 M140 0 C153.33 0, 160 6.67, 160 20 M160 20 C160 29.41, 160 38.82, 160 60 M160 20 C160 31.69, 160 43.39, 160 60 M160 60 C160 73.33, 153.33 80, 140 80 M160 60 C160 73.33, 153.33 80, 140 80 M140 80 C107.42 80, 74.84 80, 20 80 M140 80 C107.31 80, 74.62 80, 20 80 M20 80 C6.67 80, 0 73.33, 0 60 M20 80 C6.67 80, 0 73.33, 0 60 M0 60 C0 45.74, 0 31.48, 0 20 M0 60 C0 51.65, 0 43.31, 0 20 M0 20 C0 6.67, 6.67 0, 20 0 M0 20 C0 6.67, 6.67 0, 20 0" stroke="#1e1e1e" stroke-width="2" fill="none"></path></g><g transform="translate(37.75390625 167) rotate(0 52.24609375 23)"><text x="52.24609375" y="18.400390625" font-family="Helvetica, Segoe UI Emoji" font-size="20px" fill="#1e1e1e" text-anchor="middle" style="white-space: pre;" direction="ltr" dominant-baseline="alphabetic">Find largest</text><text x="52.24609375" y="41.400390625" font-family="Helvetica, Segoe UI Emoji" font-size="20px" fill="#1e1e1e" text-anchor="middle" style="white-space: pre;" direction="ltr" dominant-baseline="alphabetic">contour</text></g><g stroke-linecap="round" transform="translate(250 10) rotate(0 90 40)"><path d="M20 0 C59.86 0, 99.72 0, 160 0 M20 0 C71.55 0, 123.09 0, 160 0 M160 0 C173.33 0, 180 6.67, 180 20 M160 0 C173.33 0, 180 6.67, 180 20 M180 20 C180 29.48, 180 38.96, 180 60 M180 20 C180 30.11, 180 40.21, 180 60 M180 60 C180 73.33, 173.33 80, 160 80 M180 60 C180 73.33, 173.33 80, 160 80 M160 80 C123.2 80, 86.39 80, 20 80 M160 80 C110.7 80, 61.41 80, 20 80 M20 80 C6.67 80, 0 73.33, 0 60 M20 80 C6.67 80, 0 73.33, 0 60 M0 60 C0 46.61, 0 33.21, 0 20 M0 60 C0 49.43, 0 38.86, 0 20 M0 20 C0 6.67, 6.67 0, 20 0 M0 20 C0 6.67, 6.67 0, 20 0" stroke="#1e1e1e" stroke-width="2" fill="none"></path></g><g transform="translate(277.7392578125 27) rotate(0 62.2607421875 23)"><text x="62.2607421875" y="18.400390625" font-family="Helvetica, Segoe UI Emoji" font-size="20px" fill="#1e1e1e" text-anchor="middle" style="white-space: pre;" direction="ltr" dominant-baseline="alphabetic">Get points on </text><text x="62.2607421875" y="41.400390625" font-family="Helvetica, Segoe UI Emoji" font-size="20px" fill="#1e1e1e" text-anchor="middle" style="white-space: pre;" direction="ltr" dominant-baseline="alphabetic">perimeter</text></g><g stroke-linecap="round" transform="translate(250 150) rotate(0 90 40)"><path d="M20 0 C74.39 0, 128.79 0, 160 0 M20 0 C60.85 0, 101.69 0, 160 0 M160 0 C173.33 0, 180 6.67, 180 20 M160 0 C173.33 0, 180 6.67, 180 20 M180 20 C180 32.85, 180 45.7, 180 60 M180 20 C180 33.73, 180 47.45, 180 60 M180 60 C180 73.33, 173.33 80, 160 80 M180 60 C180 73.33, 173.33 80, 160 80 M160 80 C116.8 80, 73.6 80, 20 80 M160 80 C105.13 80, 50.25 80, 20 80 M20 80 C6.67 80, 0 73.33, 0 60 M20 80 C6.67 80, 0 73.33, 0 60 M0 60 C0 50.44, 0 40.88, 0 20 M0 60 C0 47.59, 0 35.17, 0 20 M0 20 C0 6.67, 6.67 0, 20 0 M0 20 C0 6.67, 6.67 0, 20 0" stroke="#1e1e1e" stroke-width="2" fill="none"></path></g><g transform="translate(261.6259765625 167) rotate(0 78.3740234375 23)"><text x="78.3740234375" y="18.400390625" font-family="Helvetica, Segoe UI Emoji" font-size="20px" fill="#1e1e1e" text-anchor="middle" style="white-space: pre;" direction="ltr" dominant-baseline="alphabetic">Approximate to a </text><text x="78.3740234375" y="41.400390625" font-family="Helvetica, Segoe UI Emoji" font-size="20px" fill="#1e1e1e" text-anchor="middle" style="white-space: pre;" direction="ltr" dominant-baseline="alphabetic">quadrilateral</text></g><g stroke-linecap="round" transform="translate(730 150) rotate(0 80 40)"><path d="M20 0 C67.28 0, 114.55 0, 140 0 M20 0 C54.4 0, 88.79 0, 140 0 M140 0 C153.33 0, 160 6.67, 160 20 M140 0 C153.33 0, 160 6.67, 160 20 M160 20 C160 35.35, 160 50.69, 160 60 M160 20 C160 34.23, 160 48.46, 160 60 M160 60 C160 73.33, 153.33 80, 140 80 M160 60 C160 73.33, 153.33 80, 140 80 M140 80 C95.42 80, 50.84 80, 20 80 M140 80 C113.62 80, 87.25 80, 20 80 M20 80 C6.67 80, 0 73.33, 0 60 M20 80 C6.67 80, 0 73.33, 0 60 M0 60 C0 46.28, 0 32.55, 0 20 M0 60 C0 51.26, 0 42.53, 0 20 M0 20 C0 6.67, 6.67 0, 20 0 M0 20 C0 6.67, 6.67 0, 20 0" stroke="#1e1e1e" stroke-width="2" fill="none"></path></g><g transform="translate(752.75390625 167) rotate(0 57.24609375 23)"><text x="57.24609375" y="18.400390625" font-family="Helvetica, Segoe UI Emoji" font-size="20px" fill="#1e1e1e" text-anchor="middle" style="white-space: pre;" direction="ltr" dominant-baseline="alphabetic">Create warp </text><text x="57.24609375" y="41.400390625" font-family="Helvetica, Segoe UI Emoji" font-size="20px" fill="#1e1e1e" text-anchor="middle" style="white-space: pre;" direction="ltr" dominant-baseline="alphabetic">matrix</text></g><g stroke-linecap="round"><g transform="translate(90 90) rotate(0 0 30)"><path d="M0 0 C0 10, 0 50, 0 60 M0 0 C0 10, 0 50, 0 60" stroke="#1e1e1e" stroke-width="2" fill="none"></path></g><g transform="translate(90 90) rotate(0 0 30)"><path d="M0 60 L-6.34 46.41 L6.34 46.41 L0 60" stroke="none" stroke-width="0" fill="#1e1e1e" fill-rule="evenodd"></path><path d="M0 60 C-1.3 57.22, -2.59 54.45, -6.34 46.41 M0 60 C-1.68 56.39, -3.37 52.78, -6.34 46.41 M-6.34 46.41 C-1.64 46.41, 3.06 46.41, 6.34 46.41 M-6.34 46.41 C-2.5 46.41, 1.34 46.41, 6.34 46.41 M6.34 46.41 C4.35 50.66, 2.37 54.92, 0 60 M6.34 46.41 C3.88 51.67, 1.43 56.93, 0 60 M0 60 C0 60, 0 60, 0 60 M0 60 C0 60, 0 60, 0 60" stroke="#1e1e1e" stroke-width="2" fill="none"></path></g></g><mask></mask><g stroke-linecap="round"><g transform="translate(170 190) rotate(0 20 0)"><path d="M0 0 C6.67 0, 33.33 0, 40 0 M0 0 C6.67 0, 33.33 0, 40 0" stroke="#1e1e1e" stroke-width="2" fill="none"></path></g></g><mask></mask><g stroke-linecap="round"><g transform="translate(210 50) rotate(0 0 70)"><path d="M0 0 C0 23.33, 0 116.67, 0 140 M0 0 C0 23.33, 0 116.67, 0 140" stroke="#1e1e1e" stroke-width="2" fill="none"></path></g></g><mask></mask><g stroke-linecap="round"><g transform="translate(210 50) rotate(0 19.5 0)"><path d="M0 0 C6.5 0, 32.5 0, 39 0 M0 0 C6.5 0, 32.5 0, 39 0" stroke="#1e1e1e" stroke-width="2" fill="none"></path></g><g transform="translate(210 50) rotate(0 19.5 0)"><path d="M39 0 L25.41 6.34 L25.41 -6.34 L39 0" stroke="none" stroke-width="0" fill="#1e1e1e" fill-rule="evenodd"></path><path d="M39 0 C34.77 1.97, 30.53 3.95, 25.41 6.34 M39 0 C35.24 1.75, 31.49 3.5, 25.41 6.34 M25.41 6.34 C25.41 1.39, 25.41 -3.56, 25.41 -6.34 M25.41 6.34 C25.41 1.28, 25.41 -3.78, 25.41 -6.34 M25.41 -6.34 C29.79 -4.29, 34.17 -2.25, 39 0 M25.41 -6.34 C29.67 -4.35, 33.94 -2.36, 39 0 M39 0 C39 0, 39 0, 39 0 M39 0 C39 0, 39 0, 39 0" stroke="#1e1e1e" stroke-width="2" fill="none"></path></g></g><mask></mask><g stroke-linecap="round"><g transform="translate(338.5877305438581 89.69185087172036) rotate(0 0.4532102914583618 30.062949333403708)"><path d="M0 0 C0.15 10.02, 0.76 50.1, 0.91 60.13 M0 0 C0.15 10.02, 0.76 50.1, 0.91 60.13" stroke="#1e1e1e" stroke-width="2" fill="none"></path></g><g transform="translate(338.5877305438581 89.69185087172036) rotate(0 0.4532102914583618 30.062949333403708)"><path d="M0.91 60.13 L-5.64 46.63 L7.04 46.44 L0.91 60.13" stroke="none" stroke-width="0" fill="#1e1e1e" fill-rule="evenodd"></path><path d="M0.91 60.13 C-1.02 56.15, -2.95 52.17, -5.64 46.63 M0.91 60.13 C-0.91 56.38, -2.72 52.64, -5.64 46.63 M-5.64 46.63 C-0.59 46.55, 4.45 46.48, 7.04 46.44 M-5.64 46.63 C-1.14 46.56, 3.37 46.49, 7.04 46.44 M7.04 46.44 C5.3 50.31, 3.57 54.19, 0.91 60.13 M7.04 46.44 C5.47 49.95, 3.89 53.46, 0.91 60.13 M0.91 60.13 C0.91 60.13, 0.91 60.13, 0.91 60.13 M0.91 60.13 C0.91 60.13, 0.91 60.13, 0.91 60.13" stroke="#1e1e1e" stroke-width="2" fill="none"></path></g></g><mask></mask><g stroke-linecap="round" transform="translate(490 150) rotate(0 90 40)"><path d="M20 0 C69.15 0, 118.3 0, 160 0 M20 0 C68.62 0, 117.25 0, 160 0 M160 0 C173.33 0, 180 6.67, 180 20 M160 0 C173.33 0, 180 6.67, 180 20 M180 20 C180 33.22, 180 46.44, 180 60 M180 20 C180 33.79, 180 47.58, 180 60 M180 60 C180 73.33, 173.33 80, 160 80 M180 60 C180 73.33, 173.33 80, 160 80 M160 80 C112.51 80, 65.01 80, 20 80 M160 80 C118.56 80, 77.13 80, 20 80 M20 80 C6.67 80, 0 73.33, 0 60 M20 80 C6.67 80, 0 73.33, 0 60 M0 60 C0 49.43, 0 38.85, 0 20 M0 60 C0 51.44, 0 42.89, 0 20 M0 20 C0 6.67, 6.67 0, 20 0 M0 20 C0 6.67, 6.67 0, 20 0" stroke="#1e1e1e" stroke-width="2" fill="none"></path></g><g transform="translate(513.8623046875 167) rotate(0 66.1376953125 23)"><text x="66.1376953125" y="18.400390625" font-family="Helvetica, Segoe UI Emoji" font-size="20px" fill="#1e1e1e" text-anchor="middle" style="white-space: pre;" direction="ltr" dominant-baseline="alphabetic">Get corners of </text><text x="66.1376953125" y="41.400390625" font-family="Helvetica, Segoe UI Emoji" font-size="20px" fill="#1e1e1e" text-anchor="middle" style="white-space: pre;" direction="ltr" dominant-baseline="alphabetic">quadrilateral</text></g><g stroke-linecap="round" transform="translate(970 150) rotate(0 90 40)"><path d="M20 0 C58.63 0, 97.26 0, 160 0 M20 0 C55.55 0, 91.11 0, 160 0 M160 0 C173.33 0, 180 6.67, 180 20 M160 0 C173.33 0, 180 6.67, 180 20 M180 20 C180 34.2, 180 48.4, 180 60 M180 20 C180 31.01, 180 42.02, 180 60 M180 60 C180 73.33, 173.33 80, 160 80 M180 60 C180 73.33, 173.33 80, 160 80 M160 80 C125.88 80, 91.76 80, 20 80 M160 80 C110.8 80, 61.6 80, 20 80 M20 80 C6.67 80, 0 73.33, 0 60 M20 80 C6.67 80, 0 73.33, 0 60 M0 60 C0 49.81, 0 39.62, 0 20 M0 60 C0 44.15, 0 28.31, 0 20 M0 20 C0 6.67, 6.67 0, 20 0 M0 20 C0 6.67, 6.67 0, 20 0" stroke="#1e1e1e" stroke-width="2" fill="none"></path></g><g transform="translate(977.75390625 167) rotate(0 82.24609375 23)"><text x="82.24609375" y="18.400390625" font-family="Helvetica, Segoe UI Emoji" font-size="20px" fill="#1e1e1e" text-anchor="middle" style="white-space: pre;" direction="ltr" dominant-baseline="alphabetic">Apply warp matrix </text><text x="82.24609375" y="41.400390625" font-family="Helvetica, Segoe UI Emoji" font-size="20px" fill="#1e1e1e" text-anchor="middle" style="white-space: pre;" direction="ltr" dominant-baseline="alphabetic">to image</text></g><g stroke-linecap="round"><g transform="translate(430 190) rotate(0 30 0)"><path d="M0 0 C10 0, 50 0, 60 0 M0 0 C10 0, 50 0, 60 0" stroke="#1e1e1e" stroke-width="2" fill="none"></path></g><g transform="translate(430 190) rotate(0 30 0)"><path d="M60 0 L46.41 6.34 L46.41 -6.34 L60 0" stroke="none" stroke-width="0" fill="#1e1e1e" fill-rule="evenodd"></path><path d="M60 0 C55.62 2.04, 51.24 4.09, 46.41 6.34 M60 0 C54.77 2.44, 49.54 4.88, 46.41 6.34 M46.41 6.34 C46.41 2.88, 46.41 -0.58, 46.41 -6.34 M46.41 6.34 C46.41 1.59, 46.41 -3.17, 46.41 -6.34 M46.41 -6.34 C49.78 -4.77, 53.15 -3.19, 60 0 M46.41 -6.34 C51.24 -4.09, 56.07 -1.83, 60 0 M60 0 C60 0, 60 0, 60 0 M60 0 C60 0, 60 0, 60 0" stroke="#1e1e1e" stroke-width="2" fill="none"></path></g></g><mask></mask><g stroke-linecap="round"><g transform="translate(670 190) rotate(0 30 0)"><path d="M0 0 C10 0, 50 0, 60 0 M0 0 C10 0, 50 0, 60 0" stroke="#1e1e1e" stroke-width="2" fill="none"></path></g><g transform="translate(670 190) rotate(0 30 0)"><path d="M60 0 L46.41 6.34 L46.41 -6.34 L60 0" stroke="none" stroke-width="0" fill="#1e1e1e" fill-rule="evenodd"></path><path d="M60 0 C56.23 1.76, 52.47 3.51, 46.41 6.34 M60 0 C55.21 2.23, 50.43 4.46, 46.41 6.34 M46.41 6.34 C46.41 2.33, 46.41 -1.67, 46.41 -6.34 M46.41 6.34 C46.41 3.44, 46.41 0.54, 46.41 -6.34 M46.41 -6.34 C50.06 -4.63, 53.72 -2.93, 60 0 M46.41 -6.34 C50.88 -4.25, 55.36 -2.16, 60 0 M60 0 C60 0, 60 0, 60 0 M60 0 C60 0, 60 0, 60 0" stroke="#1e1e1e" stroke-width="2" fill="none"></path></g></g><mask></mask><g stroke-linecap="round"><g transform="translate(891 190) rotate(0 39 0)"><path d="M0 0 C13 0, 65 0, 78 0 M0 0 C13 0, 65 0, 78 0" stroke="#1e1e1e" stroke-width="2" fill="none"></path></g><g transform="translate(891 190) rotate(0 39 0)"><path d="M78 0 L64.41 6.34 L64.41 -6.34 L78 0" stroke="none" stroke-width="0" fill="#1e1e1e" fill-rule="evenodd"></path><path d="M78 0 C75.08 1.36, 72.15 2.73, 64.41 6.34 M78 0 C73.71 2, 69.41 4, 64.41 6.34 M64.41 6.34 C64.41 3.58, 64.41 0.82, 64.41 -6.34 M64.41 6.34 C64.41 3.32, 64.41 0.3, 64.41 -6.34 M64.41 -6.34 C68.73 -4.32, 73.05 -2.31, 78 0 M64.41 -6.34 C67.48 -4.91, 70.56 -3.47, 78 0 M78 0 C78 0, 78 0, 78 0 M78 0 C78 0, 78 0, 78 0" stroke="#1e1e1e" stroke-width="2" fill="none"></path></g></g><mask></mask></svg>